<svg width="100" height="100" viewBox="0 0 100 100" fill="none" xmlns="http://www.w3.org/2000/svg">
<rect width="100" height="100" rx="12" fill="#F4F7FF"/>
<path d="M68.2617 47.6203C68.0604 47.5041 67.832 47.4429 67.5996 47.4429C67.3671 47.4429 67.1387 47.5041 66.9374 47.6203L49.7217 57.3538L32.506 47.6203C32.3043 47.5038 32.0754 47.4426 31.8425 47.4429C31.6096 47.4431 31.3809 47.5048 31.1794 47.6216C30.9779 47.7385 30.8108 47.9064 30.695 48.1084C30.5791 48.3105 30.5186 48.5395 30.5195 48.7724V60.201C30.5195 61.2547 30.9381 62.2652 31.6832 63.0103C32.4282 63.7553 33.4387 64.1739 34.4924 64.1739H64.951C66.0047 64.1739 67.0152 63.7553 67.7602 63.0103C68.5053 62.2652 68.9239 61.2547 68.9239 60.201V48.779C68.926 48.5446 68.8658 48.3138 68.7494 48.1102C68.6331 47.9066 68.4648 47.7375 68.2617 47.6203Z" fill="#0057B7"/>
<path d="M64.951 36.3638H34.4924C33.4387 36.3638 32.4282 36.7823 31.6832 37.5274C30.9381 38.2724 30.5195 39.283 30.5195 40.3366V42.8197C30.5186 43.053 30.5794 43.2825 30.6956 43.4848C30.8119 43.6871 30.9796 43.8551 31.1817 43.9718L49.0596 54.0695C49.2609 54.1857 49.4892 54.2469 49.7217 54.2469C49.9542 54.2469 50.1825 54.1857 50.3838 54.0695L68.2617 43.9718C68.4638 43.8551 68.6315 43.6871 68.7478 43.4848C68.864 43.2825 68.9248 43.053 68.9239 42.8197V40.3366C68.9239 39.283 68.5053 38.2724 67.7602 37.5274C67.0152 36.7823 66.0047 36.3638 64.951 36.3638Z" fill="#0057B7"/>
</svg>
