<svg width="100" height="100" viewBox="0 0 100 100" fill="none" xmlns="http://www.w3.org/2000/svg">
<rect width="100" height="100" rx="12" fill="#F4F7FF"/>
<path d="M50.0008 30.5195C45.8689 30.5242 41.9075 32.1676 38.9858 35.0893C36.0641 38.0111 34.4207 41.9724 34.416 46.1044C34.416 52.4454 39.0194 57.7111 43.8955 63.2847C45.4384 65.0497 47.0358 66.875 48.4579 68.7218C48.6399 68.9579 48.8737 69.1491 49.1412 69.2806C49.4086 69.4122 49.7028 69.4806 50.0008 69.4806C50.2989 69.4806 50.593 69.4122 50.8605 69.2806C51.128 69.1491 51.3617 68.9579 51.5437 68.7218C52.9658 66.875 54.5633 65.0497 56.1062 63.2847C60.9823 57.7111 65.5857 52.4454 65.5857 46.1044C65.581 41.9724 63.9376 38.0111 61.0158 35.0893C58.0941 32.1676 54.1328 30.5242 50.0008 30.5195ZM50.0008 51.9487C48.8449 51.9487 47.715 51.6059 46.7539 50.9637C45.7928 50.3215 45.0437 49.4088 44.6014 48.3409C44.1591 47.273 44.0433 46.0979 44.2688 44.9642C44.4943 43.8305 45.0509 42.7891 45.8683 41.9718C46.6856 41.1545 47.727 40.5978 48.8607 40.3723C49.9944 40.1468 51.1694 40.2626 52.2374 40.7049C53.3053 41.1473 54.218 41.8963 54.8602 42.8574C55.5024 43.8185 55.8451 44.9485 55.8451 46.1044C55.8451 47.6544 55.2294 49.1409 54.1334 50.2369C53.0374 51.3329 51.5508 51.9487 50.0008 51.9487Z" fill="#0057B7"/>
</svg>
