<svg width="100" height="100" viewBox="0 0 100 100" fill="none" xmlns="http://www.w3.org/2000/svg">
<rect width="100" height="100" rx="12" fill="#F4F7FF"/>
<path d="M46.3133 39.4597C45.8059 33.6232 39.717 30.7593 39.4593 30.6424C39.2184 30.5292 38.9484 30.493 38.6862 30.5388C31.6569 31.7051 30.5995 35.7963 30.557 35.9663C30.4992 36.2032 30.5084 36.4516 30.5836 36.6836C38.9678 62.697 56.3925 67.5187 62.1201 69.1047C62.5611 69.2269 62.9251 69.3252 63.2013 69.4155C63.5166 69.5186 63.8592 69.4986 64.1604 69.3597C64.3357 69.2801 68.4747 67.3301 69.4869 60.9702C69.5318 60.6926 69.4871 60.4078 69.3593 60.1573C69.269 59.9819 67.1039 55.8616 61.1 54.4057C60.8963 54.3536 60.683 54.3518 60.4785 54.4004C60.2739 54.449 60.0842 54.5466 59.9258 54.6847C58.0316 56.3026 55.4148 58.0267 54.2858 58.2047C46.7171 54.504 42.4905 47.4029 42.3311 46.056C42.2381 45.2989 43.9729 42.6397 45.968 40.4772C46.0934 40.3411 46.1889 40.1802 46.2484 40.005C46.3078 39.8298 46.33 39.644 46.3133 39.4597Z" fill="#0057B7"/>
</svg>
