<svg width="65" height="60" viewBox="0 0 65 60" fill="none" xmlns="http://www.w3.org/2000/svg">
<path d="M63.7651 36.1696C63.2932 35.4266 62.5703 34.9016 61.7269 34.7134C61.4759 34.654 61.2249 34.6242 60.9739 34.6242C60.3615 34.6242 59.759 34.7926 59.237 35.1096L44.488 43.8568L44.498 43.9856C44.508 44.055 44.498 44.1342 44.488 44.2333L44.498 44.4116L44.4578 44.4611L44.4478 44.5206C44.2771 45.4418 43.8353 46.2641 43.1928 46.8981C42.3494 47.7401 41.2149 48.2057 39.99 48.2057H26.6165C26.1647 48.2057 25.7932 47.8391 25.7932 47.3934C25.7932 46.9476 26.1647 46.5811 26.6165 46.5811H39.99C40.7631 46.5811 41.4859 46.2839 42.0382 45.7489C42.4297 45.3626 42.7108 44.8277 42.8414 44.2333L42.8715 44.0451V43.9163C42.8715 43.8172 42.8815 43.6983 42.8615 43.5101C42.8514 43.4804 42.8514 43.421 42.8514 43.3516C42.6506 41.9449 41.3554 40.885 39.8293 40.885H34.1165C31.5261 40.885 29.0161 40.1321 26.8675 38.7155C24.7892 37.3584 22.7711 36.5064 20.8835 36.1894C20.2811 36.0805 19.6285 36.021 18.8956 36.021C18.6245 36.021 18.3434 36.0309 18.0422 36.0408C17.5703 36.0606 16.8775 36.0606 16.1044 36.0606C15.0502 36.0606 13.8454 36.0507 12.8815 36.0408H12.6506L14.3474 52.7725V52.9111L14.4779 52.9607C16.3454 53.664 18.3133 54.6546 19.0663 55.0509L19.1667 55.1004C20.5924 55.8434 21.3755 56.2495 21.8072 56.5467C24.3072 57.8147 26.9578 58.4487 29.6888 58.4487C33.5743 58.4487 36.6265 57.1312 37.8012 56.3585L62.7008 40.6175C63.7149 39.9934 64.2972 38.9235 64.2671 37.7546C64.247 37.2197 64.0763 36.6649 63.7651 36.1696ZM12.741 53.4857L10.9137 35.6149V35.5554L10.8936 35.5158C10.8534 35.4365 10.8333 35.3276 10.8333 35.1988C10.8333 35.1394 10.8434 35.0997 10.8534 34.9611L10.6225 32.6826L3.11245 33.7624L0 59.3898L13.0522 56.626L12.761 53.6541L12.741 53.4857Z" fill="#7348C3"/>
<path d="M44.6173 16.803C44.3362 16.5355 44.0149 16.3077 43.6635 16.1194C43.3221 15.9411 42.9707 15.7826 42.6093 15.6439C42.3583 15.5449 41.5852 15.2675 41.5852 15.2675C41.294 15.1684 41.0028 15.0496 40.7418 14.901C40.5109 14.7722 40.3302 14.6236 40.2097 14.4651C40.0892 14.3066 40.039 14.1283 40.039 13.9004C40.039 13.7519 40.0691 13.6231 40.1193 13.5141C40.1695 13.3952 40.2398 13.3061 40.3402 13.2268C40.4607 13.1377 40.6113 13.0683 40.8221 13.0089C41.0229 12.9594 41.284 12.9296 41.5852 12.9296C41.9165 12.9296 42.2177 12.9693 42.4888 13.0386C42.78 13.1179 43.031 13.207 43.2518 13.2962C43.4828 13.3853 43.6535 13.4745 43.8041 13.5438C44.0049 13.6528 44.1755 13.7023 44.3161 13.7023C44.4466 13.7023 44.5671 13.6528 44.5972 13.6132C44.6876 13.5537 44.7579 13.4547 44.798 13.3556C44.8482 13.2367 44.8583 13.1179 44.8784 12.9693C44.8884 12.8405 44.8984 12.682 44.8984 12.474L44.8884 12.0579C44.8783 11.9192 44.8583 11.8102 44.8482 11.7706C44.8281 11.6418 44.798 11.5329 44.7478 11.4437C44.7077 11.3744 44.6474 11.305 44.5972 11.2555C44.5169 11.1564 44.3964 11.097 44.1956 10.988C44.045 10.9286 43.8844 10.8592 43.7137 10.7998C43.5229 10.7305 43.3322 10.6809 43.1314 10.6413C43.031 10.6116 42.9306 10.5918 42.8302 10.572L42.9908 9.0464C42.9908 8.97705 42.9908 8.87799 42.9506 8.76902C42.9004 8.62043 42.8 8.52137 42.6796 8.47184C42.5591 8.40249 42.4185 8.38268 42.2779 8.35296C42.1273 8.33315 41.9466 8.32324 41.7358 8.32324C41.5551 8.32324 41.4245 8.33315 41.3141 8.34306C41.1735 8.35296 41.053 8.38268 40.9627 8.43221C40.8522 8.49165 40.7719 8.55109 40.7217 8.62043C40.6615 8.69968 40.6414 8.78883 40.6314 8.8978L40.4707 10.5422C39.9988 10.6116 39.5671 10.7206 39.1655 10.889C38.6936 11.0772 38.282 11.3347 37.9607 11.6517C37.6294 11.9687 37.3784 12.3452 37.2077 12.7612C37.037 13.1773 36.9466 13.6528 36.9466 14.1481C36.9466 14.7425 37.037 15.2081 37.2077 15.5845C37.3784 15.9907 37.6093 16.3374 37.8904 16.6148C38.1715 16.8921 38.4727 17.12 38.8442 17.3181C39.1856 17.4964 39.5269 17.6549 39.8784 17.7936C40.2197 17.9224 40.5611 18.0512 40.8924 18.1601C41.1936 18.2592 41.4647 18.388 41.7257 18.5366C41.9466 18.6554 42.1273 18.7941 42.2579 18.9625C42.3683 19.1012 42.4185 19.2795 42.4185 19.5173C42.4185 19.8739 42.288 20.1414 42.0069 20.3593C41.7057 20.5872 41.2137 20.706 40.541 20.706C40.1093 20.706 39.7177 20.6565 39.3763 20.5772C39.045 20.4881 38.7539 20.389 38.533 20.29C38.3121 20.181 38.1213 20.0918 37.9506 19.9829C37.7398 19.864 37.5792 19.8145 37.4386 19.8145C37.3482 19.8145 37.2277 19.8244 37.0771 19.9135C36.9868 19.9829 36.9165 20.072 36.8663 20.1909C36.8261 20.29 36.796 20.4187 36.7659 20.607C36.7559 20.7556 36.7559 20.9339 36.7559 21.1617C36.7559 21.4886 36.7659 21.6867 36.8061 21.8452C36.8462 22.0434 36.9265 22.2019 37.047 22.3108C37.1474 22.4099 37.298 22.509 37.4587 22.5882C37.6093 22.6675 37.79 22.7467 37.9908 22.826C38.1916 22.9052 38.4225 22.9647 38.6836 23.0241C38.8442 23.0637 39.0149 23.1033 39.1856 23.1331L39.0249 24.7379C39.0149 24.8171 39.0049 24.936 39.0551 25.0846C39.1053 25.2134 39.2157 25.2926 39.3563 25.3818C39.4567 25.4214 39.5872 25.461 39.7277 25.4808C39.8683 25.5006 40.039 25.5006 40.2599 25.5006C40.4406 25.5006 40.5912 25.5006 40.6816 25.4808C40.8221 25.4709 40.9426 25.4313 40.9928 25.4016C41.1735 25.3421 41.2539 25.2332 41.294 25.1539C41.3241 25.0945 41.3643 25.0053 41.3643 24.9162L41.545 23.1628C42.0671 23.1033 42.5691 22.9845 43.031 22.8161C43.5631 22.6179 44.035 22.3406 44.4065 22.0037C44.788 21.6669 45.0892 21.2608 45.3101 20.7853C45.5209 20.3098 45.6213 19.7748 45.6213 19.2102C45.6213 18.6753 45.531 18.1998 45.3603 17.7936C45.1294 17.4172 44.9085 17.0803 44.6173 16.803Z" fill="#7348C3"/>
<path d="M41.1439 0.19043C31.7865 0.19043 24.166 7.69935 24.166 16.932C24.166 26.1646 31.7765 33.6834 41.1439 33.6834C50.4913 33.6834 58.1118 26.1745 58.1118 16.932C58.1018 7.70926 50.4913 0.19043 41.1439 0.19043ZM41.1439 30.1667C33.7544 30.1667 27.7303 24.2229 27.7303 16.932C27.7303 9.64097 33.7544 3.69723 41.1439 3.69723C48.5335 3.69723 54.5576 9.64097 54.5576 16.932C54.5576 24.2229 48.5335 30.1667 41.1439 30.1667Z" fill="#7348C3"/>
</svg>
