<svg width="61" height="61" viewBox="0 0 61 61" fill="none" xmlns="http://www.w3.org/2000/svg">
<path d="M53.4689 0.736328H8.48216C4.34713 0.736328 0.984375 4.10006 0.984375 8.2363V53.2361C0.984375 57.3723 4.34713 60.7361 8.48216 60.7361H53.4689C57.6039 60.7361 60.9667 57.3723 60.9667 53.2361V8.2363C60.9667 4.10006 57.6039 0.736328 53.4689 0.736328Z" fill="#0057B7"/>
<path fill-rule="evenodd" clip-rule="evenodd" d="M38.9079 27.3223H33.992V23.4317C33.992 22.3578 34.8729 22.459 35.9583 22.459H37.9247V17.5957H33.992C32.4274 17.5957 30.927 18.2106 29.8207 19.305C28.7144 20.3995 28.0929 21.8839 28.0929 23.4317V27.3223H24.1602V32.1856H28.0929V42.8849H33.992V32.1856H36.9415L38.9079 27.3223Z" fill="white"/>
</svg>
