<svg width="40" height="41" viewBox="0 0 40 41" fill="none" xmlns="http://www.w3.org/2000/svg">
<path d="M35 0.305664H5C2.2425 0.305664 0 2.54882 0 5.30712V35.3158C0 38.0742 2.2425 40.3173 5 40.3173H35C37.7575 40.3173 40 38.0742 40 35.3158V5.30712C40 2.54882 37.7575 0.305664 35 0.305664Z" fill="#22211F"/>
<path fill-rule="evenodd" clip-rule="evenodd" d="M25.2898 18.0351H22.0116V15.4406C22.0116 14.7245 22.599 14.792 23.3228 14.792H24.6341V11.5488H22.0116C20.9682 11.5488 19.9676 11.9589 19.2299 12.6887C18.4921 13.4186 18.0777 14.4084 18.0777 15.4406V18.0351H15.4551V21.2783H18.0777V28.4132H22.0116V21.2783H23.9785L25.2898 18.0351Z" fill="white"/>
</svg>
