<svg width="66" height="60" viewBox="0 0 66 60" fill="none" xmlns="http://www.w3.org/2000/svg">
<path d="M65.0802 22.4052C65.0802 22.2997 65.0802 22.1414 65.0267 22.0886C64.9198 21.7193 64.7059 21.4027 64.385 21.1917L55.0802 14.8074V2.2499C55.0802 1.35293 54.3316 0.614258 53.4225 0.614258H11.7647C10.8556 0.614258 10.107 1.35293 10.107 2.2499V14.7019L0.695187 21.0861C0.213904 21.4027 0 21.8776 0 22.4052C0 22.4052 0 22.4052 0 22.458L0.053476 58.1782C0.053476 58.6003 0.213904 59.0224 0.534759 59.339C0.855615 59.6556 1.28342 59.8139 1.71123 59.8139L63.4759 59.7083C64.385 59.7083 65.1337 58.9697 65.1337 58.0727L65.0802 22.4052ZM10.0535 26.2041L4.54545 22.458L10.0535 18.7118V26.2041ZM50.5882 27.787L38.877 35.8069L34.3316 32.3246C34.2781 32.3246 34.2781 32.2718 34.2246 32.2718C33.2086 31.5331 31.8182 31.5859 30.8556 32.3246L26.2567 35.8597L14.5455 27.8925V5.04631H50.5348V27.787H50.5882ZM55.0802 26.0986V18.8173L60.4278 22.458L55.0802 26.0986Z" fill="#42DAF5"/>
</svg>
