<svg width="60" height="60" viewBox="0 0 60 60" fill="none" xmlns="http://www.w3.org/2000/svg">
<g clip-path="url(#clip0_67_118)">
<path d="M16.4816 50.6064H16.3598C14.4004 50.6064 12.8066 52.2002 12.8066 54.1689V60.0002H20.0441V54.1689C20.0441 52.2002 18.4504 50.6064 16.4816 50.6064Z" fill="#FD5056"/>
<path d="M0.542969 60H10.8742V54.1687C10.8742 51.1406 13.3305 48.675 16.3586 48.675H16.4805C19.5086 48.675 21.9742 51.1406 21.9742 54.1687V60H32.2961V0H0.542969V60ZM19.4336 4.59375C19.4336 4.05938 19.8555 3.62812 20.3992 3.62812H26.9617C27.4961 3.62812 27.9273 4.05938 27.9273 4.59375V11.1562C27.9273 11.6906 27.4961 12.1219 26.9617 12.1219H20.3992C19.8555 12.1219 19.4336 11.6906 19.4336 11.1562V4.59375ZM19.4336 16.125C19.4336 15.5906 19.8555 15.1594 20.3992 15.1594H26.9617C27.4961 15.1594 27.9273 15.5906 27.9273 16.125V22.6875C27.9273 23.2313 27.4961 23.6531 26.9617 23.6531H20.3992C19.8555 23.6531 19.4336 23.2313 19.4336 22.6875V16.125ZM19.4336 27.6562C19.4336 27.1219 19.8555 26.6906 20.3992 26.6906H26.9617C27.4961 26.6906 27.9273 27.1219 27.9273 27.6562V34.2188C27.9273 34.7531 27.4961 35.1844 26.9617 35.1844H20.3992C19.8555 35.1844 19.4336 34.7531 19.4336 34.2188V27.6562ZM19.4336 39.1969C19.4336 38.6625 19.8555 38.2312 20.3992 38.2312H26.9617C27.4961 38.2312 27.9273 38.6625 27.9273 39.1969V45.7594C27.9273 46.2938 27.4961 46.725 26.9617 46.725H20.3992C19.8555 46.725 19.4336 46.2938 19.4336 45.7594V39.1969ZM4.92109 4.59375C4.92109 4.05938 5.35234 3.62812 5.88672 3.62812H12.4492C12.9836 3.62812 13.4148 4.05938 13.4148 4.59375V11.1562C13.4148 11.6906 12.9836 12.1219 12.4492 12.1219H5.88672C5.35234 12.1219 4.92109 11.6906 4.92109 11.1562V4.59375ZM4.92109 16.125C4.92109 15.5906 5.35234 15.1594 5.88672 15.1594H12.4492C12.9836 15.1594 13.4148 15.5906 13.4148 16.125V22.6875C13.4148 23.2313 12.9836 23.6531 12.4492 23.6531H5.88672C5.35234 23.6531 4.92109 23.2313 4.92109 22.6875V16.125ZM4.92109 27.6562C4.92109 27.1219 5.35234 26.6906 5.88672 26.6906H12.4492C12.9836 26.6906 13.4148 27.1219 13.4148 27.6562V34.2188C13.4148 34.7531 12.9836 35.1844 12.4492 35.1844H5.88672C5.35234 35.1844 4.92109 34.7531 4.92109 34.2188V27.6562ZM4.92109 39.1969C4.92109 38.6625 5.35234 38.2312 5.88672 38.2312H12.4492C12.9836 38.2312 13.4148 38.6625 13.4148 39.1969V45.7594C13.4148 46.2938 12.9836 46.725 12.4492 46.725H5.88672C5.35234 46.725 4.92109 46.2938 4.92109 45.7594V39.1969Z" fill="#FD5056"/>
<path d="M11.4754 5.56836H6.85352V10.1902H11.4754V5.56836Z" fill="#FD5056"/>
<path d="M11.4754 17.0908H6.85352V21.7127H11.4754V17.0908Z" fill="#FD5056"/>
<path d="M11.4754 28.6221H6.85352V33.2439H11.4754V28.6221Z" fill="#FD5056"/>
<path d="M11.4754 40.1621H6.85352V44.784H11.4754V40.1621Z" fill="#FD5056"/>
<path d="M25.9969 17.0908H21.375V21.7127H25.9969V17.0908Z" fill="#FD5056"/>
<path d="M25.9969 5.56836H21.375V10.1902H25.9969V5.56836Z" fill="#FD5056"/>
<path d="M25.9969 28.6221H21.375V33.2439H25.9969V28.6221Z" fill="#FD5056"/>
<path d="M25.9969 40.1621H21.375V44.784H25.9969V40.1621Z" fill="#FD5056"/>
<path d="M34.2461 34.791V60.0004H59.4555V34.791H34.2461ZM44.8492 55.3973C44.8492 55.9316 44.418 56.3629 43.8836 56.3629H38.5773C38.043 56.3629 37.6117 55.9316 37.6117 55.3973V50.091C37.6117 49.5566 38.043 49.1254 38.5773 49.1254H43.8836C44.418 49.1254 44.8492 49.5566 44.8492 50.091V55.3973ZM44.8492 44.691C44.8492 45.2254 44.418 45.6566 43.8836 45.6566H38.5773C38.043 45.6566 37.6117 45.2254 37.6117 44.691V39.3848C37.6117 38.8504 38.043 38.4191 38.5773 38.4191H43.8836C44.418 38.4191 44.8492 38.8504 44.8492 39.3848V44.691ZM56.0805 55.3973C56.0805 55.9316 55.6492 56.3629 55.1148 56.3629H49.8086C49.2648 56.3629 48.843 55.9316 48.843 55.3973V50.091C48.843 49.5566 49.2648 49.1254 49.8086 49.1254H55.1148C55.6492 49.1254 56.0805 49.5566 56.0805 50.091V55.3973ZM56.0805 44.691C56.0805 45.2254 55.6492 45.6566 55.1148 45.6566H49.8086C49.2648 45.6566 48.843 45.2254 48.843 44.691V39.3848C48.843 38.8504 49.2648 38.4191 49.8086 38.4191H55.1148C55.6492 38.4191 56.0805 38.8504 56.0805 39.3848V44.691Z" fill="#FD5056"/>
<path d="M54.1508 51.0566H50.7852V54.4223H54.1508V51.0566Z" fill="#FD5056"/>
<path d="M54.1508 40.3594H50.7852V43.725H54.1508V40.3594Z" fill="#FD5056"/>
<path d="M42.9086 40.3594H39.543V43.725H42.9086V40.3594Z" fill="#FD5056"/>
<path d="M42.9086 51.0566H39.543V54.4223H42.9086V51.0566Z" fill="#FD5056"/>
</g>
<defs>
<clipPath id="clip0_67_118">
<rect width="60" height="60" fill="white"/>
</clipPath>
</defs>
</svg>
