<svg width="40" height="41" viewBox="0 0 40 41" fill="none" xmlns="http://www.w3.org/2000/svg">
<path d="M31.0218 0.305664H8.97818C4.01967 0.305664 0 4.3265 0 9.28646V31.3365C0 36.2965 4.01967 40.3173 8.97818 40.3173H31.0218C35.9803 40.3173 40 36.2965 40 31.3365V9.28646C40 4.3265 35.9803 0.305664 31.0218 0.305664Z" fill="#22211F"/>
<path d="M15.329 17.613H12.1284V26.9889H15.329V17.613Z" fill="white"/>
<path d="M14.791 13.2375C14.4859 13.0527 14.1274 12.9541 13.7607 12.9541C13.516 12.9541 13.2738 12.998 13.0478 13.0833C12.8219 13.1686 12.6168 13.2936 12.4443 13.4511C12.2717 13.6087 12.1352 13.7956 12.0426 14.0012C11.9499 14.2068 11.9029 14.427 11.9043 14.6491C11.9064 14.982 12.0171 15.3069 12.2224 15.5828C12.4276 15.8587 12.7183 16.0732 13.0577 16.1992C13.3971 16.3253 13.77 16.3573 14.1294 16.2912C14.4888 16.2251 14.8186 16.0638 15.0771 15.8277C15.3357 15.5917 15.5114 15.2913 15.5822 14.9647C15.6529 14.638 15.6156 14.2997 15.4748 13.9923C15.3339 13.6849 15.096 13.4222 14.791 13.2375Z" fill="white"/>
<path d="M20.4667 17.6125H17.3834L17.3727 27.0078H20.5734V22.3683C20.5734 21.1478 20.8295 19.9662 22.4938 19.9662C24.1582 19.9662 24.1582 21.3706 24.1582 22.4554V26.9884H27.3588V21.8452C27.3588 19.3172 26.708 17.3801 23.5074 17.3801C22.8973 17.3584 22.2923 17.4875 21.7568 17.7536C21.2212 18.0197 20.7754 18.4129 20.4667 18.891V17.6125Z" fill="white"/>
</svg>
