<svg width="61" height="61" viewBox="0 0 61 61" fill="none" xmlns="http://www.w3.org/2000/svg">
<path d="M47.4682 0.736328H14.4125C6.97694 0.736328 0.949219 6.7658 0.949219 14.2035V47.2689C0.949219 54.7066 6.97694 60.7361 14.4125 60.7361H47.4682C54.9038 60.7361 60.9315 54.7066 60.9315 47.2689V14.2035C60.9315 6.7658 54.9038 0.736328 47.4682 0.736328Z" fill="#0057B7"/>
<path d="M23.9344 26.6894H19.1348V40.7491H23.9344V26.6894Z" fill="white"/>
<path d="M23.1275 20.1281C22.6701 19.851 22.1325 19.7031 21.5826 19.7031C21.2157 19.7031 20.8524 19.769 20.5136 19.8969C20.1748 20.0248 19.8672 20.2123 19.6085 20.4485C19.3498 20.6847 19.1451 20.965 19.0062 21.2733C18.8672 21.5816 18.7968 21.9118 18.7989 22.2449C18.802 22.7441 18.968 23.2313 19.2758 23.645C19.5836 24.0587 20.0194 24.3803 20.5284 24.5694C21.0373 24.7585 21.5965 24.8064 22.1355 24.7073C22.6744 24.6081 23.1689 24.3663 23.5566 24.0123C23.9444 23.6583 24.2079 23.2079 24.314 22.7181C24.4201 22.2283 24.3641 21.7209 24.1529 21.2599C23.9418 20.799 23.585 20.4051 23.1275 20.1281Z" fill="white"/>
<path d="M31.6387 26.6887H27.0151L26.9991 40.7774H31.7987V33.8202C31.7987 31.9901 32.1826 30.2181 34.6784 30.2181C37.1742 30.2181 37.1742 32.3242 37.1742 33.9509V40.7484H41.9738V33.0359C41.9738 29.245 40.9979 26.3401 36.1983 26.3401C35.2835 26.3076 34.3762 26.5012 33.5732 26.9003C32.7701 27.2993 32.1015 27.8888 31.6387 28.6059V26.6887Z" fill="white"/>
</svg>
