<svg width="70" height="71" viewBox="0 0 70 71" fill="none" xmlns="http://www.w3.org/2000/svg">
<circle cx="35" cy="35.1074" r="35" fill="#0057B7"/>
<path d="M52.6105 24.0983C53.3018 25.2957 53.2092 26.7215 52.3677 27.819L33.8939 51.9261C33.1321 52.9202 31.8776 53.427 30.5948 53.1808C29.3387 52.9392 28.3427 52.0235 27.997 50.792L25.2635 41.0634L24.9789 40.0515L24.2449 39.299L17.1864 32.0674C16.2927 31.1523 15.9977 29.8319 16.4166 28.6233C16.8311 27.4285 17.8708 26.5615 19.1527 26.3935L49.267 22.4483C50.6381 22.2683 51.9192 22.901 52.6105 24.0983Z" fill="white"/>
<path d="M25.2636 41.0631L27.997 50.7918C28.3427 52.0233 29.3386 52.9389 30.5948 53.1806C31.8776 53.4269 33.1321 52.92 33.8939 51.9259L52.3677 27.8188C53.2092 26.7213 53.3018 25.2955 52.6105 24.0981L24.9789 40.0512L25.2636 41.0631Z" fill="white"/>
<path d="M36.2224 33.5594C36.5035 34.0464 36.3371 34.6695 35.8495 34.951L25.2628 41.0632L24.9781 40.0513L24.2441 39.2988L34.8309 33.1866C35.3184 32.9052 35.9413 33.0725 36.2224 33.5594Z" fill="#0057B7"/>
<path d="M25.2632 41.0629L35.85 34.9506C36.3375 34.6691 36.504 34.0461 36.2228 33.5591L24.9786 40.051L25.2632 41.0629Z" fill="#0057B7"/>
</svg>
