<svg width="61" height="61" viewBox="0 0 61 61" fill="none" xmlns="http://www.w3.org/2000/svg">
<path d="M60.9491 52.4028C60.9491 54.6129 60.0714 56.7325 58.509 58.2953C56.9467 59.8581 54.8277 60.7361 52.6182 60.7361H9.29767C7.08819 60.7361 4.9692 59.8581 3.40685 58.2953C1.84451 56.7325 0.966797 54.6129 0.966797 52.4028V9.06963C0.966797 6.8595 1.84451 4.73989 3.40685 3.17709C4.9692 1.6143 7.08819 0.736328 9.29767 0.736328H52.6182C54.8277 0.736328 56.9467 1.6143 58.509 3.17709C60.0714 4.73989 60.9491 6.8595 60.9491 9.06963V52.4028Z" fill="#0057B7"/>
<path d="M42.5441 23.9269C41.6924 24.3172 40.6138 24.6835 39.6472 24.8053C40.6303 24.2024 42.1897 22.9466 42.5441 21.8105C41.6258 22.3686 39.9649 22.9645 38.8815 23.1802C38.0163 22.2318 36.7822 21.8105 35.4149 21.8105C32.7884 21.8105 30.9566 24.1115 30.9566 26.8018V28.7983C27.0941 28.7983 23.3282 25.7567 20.9846 22.8088C20.5609 23.5518 20.3384 24.399 20.3406 25.2615C20.3406 27.0773 21.9541 28.9201 23.2316 29.7966C22.4524 29.7716 20.9769 29.1567 20.3348 28.7983V28.8552C20.3348 31.2181 21.9387 32.8223 24.1123 33.2695C23.7154 33.3823 23.2316 33.7896 21.3699 33.7896C21.9744 35.7212 25.0132 36.7425 27.0941 36.7844C25.4661 38.0891 22.5634 38.7809 20.3348 38.7809C19.9495 38.7809 19.7409 38.8029 19.3691 38.7579C21.4723 40.1355 24.4097 40.7774 27.0941 40.7774C35.8398 40.7774 40.6129 33.8715 40.6129 27.4307C40.6129 27.2191 40.6061 26.5103 40.5955 26.3027C41.5302 25.6219 41.9087 24.9091 42.5441 23.9269Z" fill="white"/>
</svg>
