<svg width="40" height="41" viewBox="0 0 40 41" fill="none" xmlns="http://www.w3.org/2000/svg">
<path d="M40 34.7601C40 36.234 39.4147 37.6475 38.3728 38.6896C37.3309 39.7318 35.9179 40.3173 34.4444 40.3173H5.55556C4.08213 40.3173 2.66905 39.7318 1.62718 38.6896C0.585316 37.6475 0 36.234 0 34.7601V5.86284C0 4.38898 0.585316 2.97549 1.62718 1.93332C2.66905 0.89115 4.08213 0.305664 5.55556 0.305664H34.4444C35.9179 0.305664 37.3309 0.89115 38.3728 1.93332C39.4147 2.97549 40 4.38898 40 5.86284V34.7601Z" fill="#22211F"/>
<path d="M27.726 15.7707C27.1581 16.0309 26.4388 16.2753 25.7942 16.3565C26.4497 15.9544 27.4897 15.1169 27.726 14.3594C27.1136 14.7315 26.0061 15.1289 25.2836 15.2727C24.7066 14.6403 23.8836 14.3594 22.9718 14.3594C21.2203 14.3594 19.9988 15.8938 19.9988 17.6879V19.0193C17.423 19.0193 14.9116 16.9909 13.3488 15.0251C13.0662 15.5205 12.9178 16.0855 12.9193 16.6607C12.9193 17.8716 13.9953 19.1005 14.8472 19.685C14.3276 19.6683 13.3436 19.2583 12.9154 19.0193V19.0572C12.9154 20.6329 13.985 21.7027 15.4345 22.0009C15.1699 22.0762 14.8472 22.3478 13.6057 22.3478C14.0088 23.6359 16.0353 24.3169 17.423 24.3449C16.3373 25.215 14.4016 25.6763 12.9154 25.6763C12.6585 25.6763 12.5194 25.6909 12.2715 25.661C13.674 26.5796 15.6328 27.0077 17.423 27.0077C23.2552 27.0077 26.4382 22.4024 26.4382 18.1073C26.4382 17.9661 26.4336 17.4935 26.4266 17.355C27.0499 16.901 27.3023 16.4257 27.726 15.7707Z" fill="white"/>
</svg>
