<svg width="100" height="100" viewBox="0 0 100 100" fill="none" xmlns="http://www.w3.org/2000/svg">
<path d="M50.1953 98.6719C77.0898 98.6719 98.8672 76.875 98.8672 50H1.52344C1.52344 76.8945 23.3203 98.6719 50.1953 98.6719Z" fill="#FFD700"/>
<path d="M50.0781 1.32812C23.2031 1.32812 1.40625 23.1055 1.40625 50H98.7695C98.7695 23.1055 76.9727 1.32812 50.0781 1.32812Z" fill="#0057B7"/>
<path d="M97.3633 50C97.3633 76.1133 76.1133 97.3633 50 97.3633C23.8867 97.3633 2.63672 76.1133 2.63672 50H0C0 77.5781 22.4219 100 50 100C77.5781 100 100 77.5781 100 50H97.3633Z" fill="white"/>
<path d="M2.63672 50C2.63672 23.8867 23.8867 2.63672 50 2.63672C76.1133 2.63672 97.3633 23.8867 97.3633 50H100C100 22.4219 77.5781 0 50 0C22.4219 0 0 22.4219 0 50H2.63672Z" fill="white"/>
<path d="M26.7969 32.8516C25.8594 32.168 25.1953 31.1719 24.8242 29.9219L27.3047 28.9453C27.5 29.6875 27.832 30.293 28.3008 30.7227C28.7695 31.1719 29.3555 31.3867 30.0586 31.3867C30.6445 31.3867 31.1523 31.2305 31.5625 30.9375C31.9727 30.6445 32.1875 30.2344 32.1875 29.707C32.1875 29.1797 31.9922 28.75 31.582 28.418C31.1914 28.0859 30.4688 27.7344 29.4531 27.3437L28.5937 27.0312C27.6953 26.7187 26.9141 26.2305 26.2891 25.5859C25.6445 24.9414 25.332 24.1211 25.332 23.1445C25.332 22.4219 25.5273 21.7578 25.8984 21.1523C26.2695 20.5469 26.8164 20.0781 27.5 19.7266C28.1836 19.375 28.9844 19.1992 29.8438 19.1992C31.1133 19.1992 32.1094 19.4922 32.832 20.0977C33.5547 20.6836 34.0625 21.3867 34.3359 22.1875L32.0117 23.1641C31.875 22.7344 31.6211 22.3633 31.25 22.0703C30.8984 21.7773 30.4297 21.6211 29.8633 21.6211C29.2969 21.6211 28.8086 21.7578 28.4375 22.0312C28.0664 22.3047 27.8711 22.6562 27.8711 23.0859C27.8711 23.4961 28.0469 23.8672 28.3984 24.1602C28.75 24.4531 29.3359 24.7461 30.1367 25.0195L31.0156 25.3125C32.2266 25.7227 33.1641 26.2891 33.8086 26.9727C34.4531 27.6563 34.7852 28.5547 34.7852 29.668C34.7852 30.5859 34.5508 31.3477 34.082 31.9922C33.6133 32.6172 33.0078 33.1055 32.2656 33.418C31.5234 33.7305 30.7617 33.8867 29.9805 33.8867C28.8281 33.8867 27.7539 33.5547 26.7969 32.8516Z" fill="#FFD700"/>
<path d="M39.1016 33.5156C38.6914 33.3594 38.3398 33.1641 38.0859 32.8906C37.4805 32.3047 37.168 31.4648 37.168 30.3906V25.7812H35.4297V23.5938H37.168V20.7812H39.7266V23.5938H42.168V25.7812H39.7266V29.9023C39.7266 30.4102 39.8438 30.7812 40.0586 30.9961C40.2344 31.2109 40.5469 31.3086 40.9961 31.3086C41.25 31.3086 41.4453 31.2695 41.6211 31.2109C41.7773 31.1523 41.9922 31.0352 42.2656 30.8789V33.3984C41.6992 33.6133 41.1133 33.7305 40.4883 33.7305C39.9805 33.7305 39.5117 33.6523 39.1016 33.5156Z" fill="#FFD700"/>
<path d="M44.1797 32.9688C43.4961 32.3438 43.1641 31.543 43.1641 30.5273C43.1641 29.8633 43.3398 29.2773 43.6914 28.7695C44.043 28.2617 44.5313 27.8711 45.1367 27.5977C45.7422 27.3242 46.4258 27.1875 47.168 27.1875C48.2031 27.1875 49.082 27.3437 49.8047 27.6367V27.207C49.8047 26.6602 49.5898 26.2109 49.1797 25.8789C48.7695 25.5469 48.2227 25.3711 47.5195 25.3711C47.0508 25.3711 46.6016 25.4883 46.1523 25.7031C45.7227 25.918 45.3516 26.2109 45.0586 26.5625L43.418 25.2734C43.9063 24.6484 44.5117 24.1602 45.2344 23.8281C45.957 23.4961 46.7578 23.3203 47.6172 23.3203C49.1406 23.3203 50.3125 23.6719 51.0938 24.375C51.8945 25.0781 52.2852 26.1133 52.2852 27.4609V33.6133H49.8047V32.5977H49.6484C49.3555 32.9883 48.9453 33.3008 48.457 33.5547C47.9688 33.8086 47.4023 33.9258 46.7578 33.9258C45.7227 33.8867 44.8437 33.5742 44.1797 32.9688ZM49.1602 31.1719C49.5898 30.7031 49.8242 30.1367 49.8242 29.4922C49.1602 29.1797 48.457 29.0234 47.7344 29.0234C46.4062 29.0234 45.7422 29.5117 45.7422 30.5078C45.7422 30.918 45.8789 31.25 46.1719 31.5039C46.4648 31.7578 46.875 31.8945 47.4023 31.8945C48.125 31.8945 48.7109 31.6602 49.1602 31.1719Z" fill="#FFD700"/>
<path d="M54.3164 23.5938H56.7187V24.8437H56.875C57.168 24.3555 57.5977 23.9844 58.1445 23.6914C58.6914 23.418 59.2773 23.2617 59.9219 23.2617C61.1133 23.2617 62.0312 23.6328 62.6562 24.3555C63.2812 25.0781 63.5938 26.0938 63.5938 27.3438V33.5547H61.0352V27.6563C61.0352 27.0117 60.8789 26.5234 60.5469 26.1719C60.2148 25.8203 59.7656 25.6445 59.1797 25.6445C58.4961 25.6445 57.9297 25.918 57.5 26.4453C57.0703 26.9727 56.8555 27.6562 56.8555 28.457V33.5547H54.2969V23.5938H54.3164Z" fill="#FFD700"/>
<path d="M67.4805 33.2227C66.7383 32.7734 66.1523 32.1484 65.7422 31.3477C65.3125 30.5469 65.0977 29.6289 65.0977 28.5937C65.0977 27.5781 65.3125 26.6602 65.7422 25.8594C66.1719 25.0586 66.7383 24.4141 67.4805 23.9648C68.2227 23.5156 69.043 23.2812 69.9414 23.2812C70.625 23.2812 71.2109 23.4375 71.7383 23.7305C72.2656 24.0234 72.6563 24.3945 72.9297 24.8242H73.0859L72.9297 23.418V19.5898H75.4688V33.6133H73.0859V32.4219H72.9297C72.6758 32.8516 72.2656 33.2031 71.7383 33.4961C71.2109 33.7891 70.6055 33.9258 69.9219 33.9258C69.043 33.8867 68.2227 33.6719 67.4805 33.2227ZM71.7188 31.1523C72.1289 30.8984 72.4609 30.5664 72.7148 30.1172C72.9688 29.668 73.0859 29.1602 73.0859 28.5937C73.0859 28.0273 72.9688 27.5195 72.7148 27.0703C72.4609 26.6211 72.1289 26.2891 71.7188 26.0352C71.3086 25.8008 70.8594 25.6641 70.3711 25.6641C69.9023 25.6641 69.4531 25.7812 69.043 26.0352C68.6328 26.2695 68.3008 26.6211 68.0469 27.0703C67.793 27.5195 67.6758 28.0273 67.6758 28.5937C67.6758 29.1602 67.793 29.668 68.0469 30.1172C68.3008 30.5664 68.6328 30.8984 69.043 31.1523C69.4531 31.4062 69.9023 31.5234 70.3711 31.5234C70.8398 31.5234 71.3086 31.4062 71.7188 31.1523Z" fill="#FFD700"/>
<path d="M18.8477 77.0703C18.0273 76.6016 17.4023 75.918 16.9531 75.0391C16.5039 74.1602 16.2695 73.1055 16.2695 71.8945V63.457H18.8867V72.0508C18.8867 73.0078 19.1406 73.7891 19.6289 74.3945C20.1172 74.9805 20.8203 75.293 21.7187 75.293C22.6172 75.293 23.3203 75 23.8086 74.3945C24.2969 73.8086 24.5508 73.0273 24.5508 72.0508V63.457H27.168V71.8945C27.168 73.0469 26.9531 74.082 26.5039 74.9609C26.0547 75.8398 25.4297 76.543 24.6094 77.0312C23.7891 77.5195 22.832 77.7734 21.7383 77.7734C20.6445 77.7734 19.668 77.5391 18.8477 77.0703Z" fill="#0057B7"/>
<path d="M29.375 63.457H31.9336V71.0938H32.0703L35.6445 67.5H38.7891V67.6562L35.0195 71.3477L38.9648 77.3242V77.4805H35.9375L33.2227 73.1055L31.9336 74.375V77.4609H29.375V63.457Z" fill="#0057B7"/>
<path d="M39.9219 67.4805H42.3242V68.8086H42.4805C42.7344 68.3398 43.1055 67.9492 43.6328 67.6367C44.1602 67.3242 44.7266 67.168 45.3516 67.168C45.8008 67.168 46.2305 67.2461 46.6016 67.3828V69.9414C46.25 69.8047 45.957 69.707 45.7031 69.6484C45.4687 69.5898 45.1953 69.5508 44.9219 69.5508C44.1602 69.5508 43.5547 69.8242 43.125 70.3711C42.6758 70.918 42.4609 71.6211 42.4609 72.4414V77.4219H39.9023V67.4805H39.9219Z" fill="#0057B7"/>
<path d="M48.0273 76.8555C47.3437 76.2305 47.0117 75.4297 47.0117 74.4141C47.0117 73.75 47.1875 73.1641 47.5391 72.6562C47.8906 72.1484 48.3789 71.7578 48.9844 71.4844C49.5898 71.2109 50.2734 71.0742 51.0156 71.0742C52.0508 71.0742 52.9297 71.2305 53.6523 71.5234V71.0937C53.6523 70.5469 53.4375 70.0977 53.0273 69.7656C52.6172 69.4336 52.0703 69.2578 51.3672 69.2578C50.8984 69.2578 50.4492 69.375 50 69.5898C49.5703 69.8047 49.1992 70.0977 48.9062 70.4492L47.2656 69.1602C47.7539 68.5352 48.3594 68.0469 49.082 67.7148C49.8047 67.3828 50.6055 67.207 51.4648 67.207C52.9883 67.207 54.1602 67.5586 54.9414 68.2617C55.7422 68.9648 56.1328 70 56.1328 71.3477V77.5H53.6133V76.4844H53.5156C53.2227 76.875 52.8125 77.1875 52.3242 77.4414C51.8359 77.6953 51.2695 77.8125 50.625 77.8125C49.5703 77.7734 48.7109 77.4609 48.0273 76.8555ZM53.0078 75.0781C53.4375 74.6094 53.6719 74.043 53.6719 73.3984C53.0078 73.0859 52.3047 72.9297 51.582 72.9297C50.2539 72.9297 49.5898 73.418 49.5898 74.4141C49.5898 74.8242 49.7266 75.1563 50.0195 75.4102C50.3125 75.6641 50.7227 75.8008 51.25 75.8008C51.9922 75.7813 52.5781 75.5469 53.0078 75.0781Z" fill="#0057B7"/>
<path d="M58.4375 65.8984C58.1055 65.5664 57.9492 65.1758 57.9492 64.7266C57.9492 64.2773 58.1055 63.8867 58.4375 63.5547C58.7695 63.2422 59.1602 63.0664 59.6094 63.0664C60.0586 63.0664 60.4492 63.2227 60.7812 63.5547C61.0938 63.8672 61.2695 64.2578 61.2695 64.7266C61.2695 65.1758 61.1133 65.5664 60.7812 65.8984C60.4688 66.2305 60.0781 66.3867 59.6094 66.3867C59.1602 66.3867 58.7695 66.2305 58.4375 65.8984ZM58.3203 67.4805H60.8789V77.4609H58.3203V67.4805Z" fill="#0057B7"/>
<path d="M63.1836 67.4805H65.5859V68.7305H65.7422C66.0352 68.2422 66.4648 67.8711 67.0117 67.5781C67.5586 67.3047 68.1445 67.1484 68.7891 67.1484C69.9805 67.1484 70.8984 67.5195 71.5234 68.2422C72.1484 68.9648 72.4609 69.9805 72.4609 71.2305V77.4414H69.9219V71.543C69.9219 70.8984 69.7656 70.4102 69.4336 70.0586C69.1016 69.707 68.6523 69.5313 68.0664 69.5313C67.3828 69.5313 66.8164 69.8047 66.3867 70.332C65.957 70.8594 65.7422 71.543 65.7422 72.3438V77.4414H63.1836V67.4805Z" fill="#0057B7"/>
<path d="M76.5039 77.0898C75.7031 76.6406 75.0781 75.9961 74.6289 75.1953C74.1797 74.3945 73.9453 73.4961 73.9453 72.4805C73.9453 71.5234 74.1602 70.6445 74.6094 69.8242C75.0586 69.0039 75.6641 68.3594 76.4453 67.8711C77.2266 67.3828 78.1055 67.1484 79.0625 67.1484C80.0977 67.1484 80.9766 67.3633 81.7187 67.8125C82.4609 68.2617 83.0273 68.8672 83.418 69.6289C83.8086 70.3906 84.0039 71.25 84.0039 72.1875C84.0039 72.4805 83.9844 72.7734 83.9453 73.0469H76.4453C76.582 73.8477 76.8945 74.4531 77.4023 74.8633C77.9102 75.2734 78.5156 75.4883 79.2188 75.4883C79.8047 75.4883 80.3125 75.3516 80.7422 75.0977C81.1719 74.8438 81.5039 74.4922 81.7578 74.0625L83.8281 75.0781C82.8125 76.8555 81.2695 77.7344 79.1797 77.7344C78.2031 77.7734 77.3047 77.5586 76.5039 77.0898ZM81.5625 71.2695C81.543 70.957 81.4258 70.6445 81.2109 70.332C81.0156 70.0195 80.7227 69.7656 80.3711 69.5703C80.0195 69.375 79.5898 69.2578 79.1016 69.2578C78.4961 69.2578 77.9687 69.4336 77.5195 69.8047C77.0898 70.1563 76.7578 70.6445 76.5625 71.2695H81.5625Z" fill="#0057B7"/>
<path d="M37.7148 50.7617L37.4609 51.9141H37.3437L37.1484 50.7617L36.9727 50H34.7852L36.2695 55.6055H38.3984L40.0586 50H37.9492L37.7148 50.7617Z" fill="#0057B7"/>
<path d="M44.3359 50L44.1602 50.7617L43.9648 51.8945H43.8477L43.5938 50.7617L43.3594 50H41.2891L42.8711 55.6055H45.0977L46.5625 50H44.3359Z" fill="#0057B7"/>
<path d="M51.0547 50H49.043V55.6055H51.0547V50Z" fill="#0057B7"/>
<path d="M56.9336 53.8281C56.582 53.8281 56.3281 53.75 56.1914 53.5742C56.0156 53.3984 55.9375 53.1055 55.9375 52.7148V50H53.9062V53.0859C53.9062 53.9453 54.1406 54.5898 54.6289 55.0586C54.8438 55.2734 55.0977 55.4297 55.4297 55.5469C55.7617 55.6641 56.1133 55.7227 56.5039 55.7227C56.9922 55.7227 57.4609 55.6445 57.9102 55.4688V53.4961C57.6953 53.6133 57.5391 53.7109 57.4023 53.75C57.2852 53.8086 57.1094 53.8281 56.9336 53.8281Z" fill="#0057B7"/>
<path d="M59.6094 55.6055H61.6211V51.6211C61.6211 50.9961 61.7969 50.4688 62.1289 50.0391L62.1484 50.0195H59.5898V55.6055H59.6094Z" fill="#0057B7"/>
<path d="M64.707 50C64.8633 50.2539 64.9609 50.5664 64.9609 50.957V55.5859H66.9727V50.7031C66.9727 50.4492 66.9531 50.2148 66.9336 49.9805H64.707V50Z" fill="#0057B7"/>
<path d="M47.9492 44.5703H45.6445L44.3359 50H46.5625L47.9492 44.5703Z" fill="#FFD700"/>
<path d="M35.6445 44.5703H33.3398L34.7852 50H36.9727L35.6445 44.5703Z" fill="#FFD700"/>
<path d="M41.6992 44.5703H39.6484L37.9492 50H40.0586L40.3711 48.9453L40.625 47.7539H40.7422L40.9961 48.9453L41.2891 50H43.3594L41.6992 44.5703Z" fill="#FFD700"/>
<path d="M50.0586 46.875C50.4102 46.875 50.7227 46.7383 50.9766 46.4844C51.2305 46.2305 51.3477 45.918 51.3477 45.5664C51.3477 45.2148 51.2305 44.9023 50.9766 44.6484C50.7227 44.3945 50.4102 44.2773 50.0586 44.2773C49.707 44.2773 49.3945 44.3945 49.1406 44.6484C48.8867 44.9023 48.75 45.2148 48.75 45.5664C48.75 45.918 48.8867 46.2305 49.1406 46.4844C49.375 46.7578 49.6875 46.875 50.0586 46.875Z" fill="#FFD700"/>
<path d="M51.0547 47.7344H49.043V50H51.0547V47.7344Z" fill="#FFD700"/>
<path d="M55.918 49.4727H57.8516V47.7344H55.918V45.5273H53.9062V47.7344H52.5391V49.4727H53.9062V50H55.918V49.4727Z" fill="#FFD700"/>
<path d="M66.2109 48.3594C65.7031 47.793 64.9609 47.5 64.0234 47.5C63.5156 47.5 63.0469 47.6172 62.6172 47.832C62.1875 48.0664 61.8555 48.3594 61.6406 48.7305H61.5234L61.6406 47.3633V44.5703H59.6289V50H62.1875C62.5195 49.5898 62.9688 49.375 63.4766 49.375C63.9258 49.375 64.2969 49.5117 64.5703 49.7852C64.6289 49.8437 64.6875 49.9219 64.7266 50H66.9336C66.8164 49.3359 66.582 48.7695 66.2109 48.3594Z" fill="#FFD700"/>
</svg>
