<svg width="48" height="60" viewBox="0 0 48 60" fill="none" xmlns="http://www.w3.org/2000/svg">
<path d="M47.1389 20.4907C44.6586 19.5977 41.8166 20.6699 40.804 22.8816C40.804 22.8816 38.8093 27.2457 38.6573 27.5771C38.3556 28.2324 37.8753 29.0515 37.4824 29.4033C36.8012 30.0118 35.6048 30.1596 34.7575 29.7398C34.2104 29.4692 33.6774 28.8928 33.3995 28.2726C33.123 27.6575 33.0192 26.962 32.9436 26.3578C32.679 24.2595 32.8761 20.8783 32.8872 20.6918L34.5232 5.48637C34.5321 5.39568 34.5373 5.31304 34.5373 5.23478C34.5373 3.88903 33.4121 2.77879 31.9206 2.65226C30.341 2.51915 28.9296 3.56649 28.7762 4.98757L27.2269 19.3907C27.1935 19.7015 26.8407 19.9348 26.4612 19.8836C26.1454 19.8405 25.9082 19.5991 25.9082 19.3227V2.78684C25.9082 2.08617 25.6028 1.42939 25.0483 0.937903C24.505 0.455922 23.7852 0.19043 23.0209 0.19043C21.4287 0.19043 20.1337 1.35552 20.1337 2.78684L20.1314 20.1316C20.124 20.1396 20.1114 20.1462 20.0936 20.1499C20.0484 20.1594 20.0128 20.1374 20.0077 20.1301L17.0885 4.65772C16.8521 3.40486 15.6557 2.49648 14.2435 2.49648C14.0879 2.49648 13.9292 2.50745 13.7713 2.53085C12.973 2.64934 12.2621 3.06769 11.8211 3.67839C11.4252 4.2262 11.274 4.88298 11.3956 5.52806L14.5052 22.0017C14.5096 22.0281 14.5119 22.0551 14.5119 22.0815C14.5119 22.238 14.4266 22.385 14.2784 22.4837C14.0908 22.608 13.8484 22.6336 13.6305 22.5517C13.4474 22.483 13.3192 22.3499 13.2769 22.1875L10.4942 11.4003C10.1888 10.217 9.03313 9.3905 7.68476 9.3905C7.4735 9.3905 7.25927 9.41244 7.04653 9.45559C6.25707 9.61503 5.5751 10.0692 5.17407 10.7011C4.81307 11.2701 4.70485 11.9364 4.87015 12.5757L8.37414 26.1596C8.80779 27.8396 9.09911 29.5328 9.23995 31.1916C9.25996 31.4293 9.28072 31.6618 9.30221 31.89C9.41637 31.765 9.52905 31.637 9.63949 31.5068C9.75365 31.3729 9.86632 31.2362 9.97603 31.0972C10.0843 30.9619 10.1903 30.8237 10.294 30.684L14.9752 24.3838L16.7594 25.693L12.0879 31.9815C11.5423 32.7158 10.9434 33.4084 10.2918 34.0454C10.254 34.0842 10.2162 34.1208 10.1784 34.1573C10.1065 34.2261 10.0346 34.2963 9.96269 34.3665C9.85298 34.4733 9.74327 34.5808 9.63431 34.6905C9.39117 34.9333 9.14951 35.1813 8.91305 35.435C7.20442 37.2642 5.73892 39.3582 5.73966 41.4858C5.74115 41.9904 5.50987 42.4432 5.11922 42.7211L0 46.389L6.17183 53.7796L10.9011 49.373C10.9034 49.3708 10.9071 49.3686 10.9093 49.3657C11.1369 49.1814 11.357 49.0483 11.5698 48.951C11.6039 48.9356 11.6372 48.921 11.6706 48.9079C11.7425 48.8786 11.8136 48.853 11.8848 48.8318C11.8959 48.8281 11.907 48.8245 11.9189 48.8215C12.0382 48.7864 12.1554 48.7616 12.2703 48.744C12.2992 48.7396 12.3281 48.7352 12.3563 48.7323C12.5401 48.7089 12.7195 48.7023 12.8959 48.7023C13.059 48.7023 13.2198 48.7075 13.3785 48.7096C13.9819 48.7199 14.6171 48.8303 15.2976 48.9671C15.3369 48.9751 15.3762 48.9832 15.4162 48.9912C15.5371 49.0154 15.6594 49.041 15.7832 49.0666C15.904 49.0922 16.0263 49.117 16.1501 49.1426C16.8432 49.2838 17.5844 49.422 18.3872 49.4908C18.4035 49.4922 18.4199 49.4937 18.4369 49.4944C18.4703 49.4966 18.5058 49.4973 18.5429 49.4973C18.6963 49.4973 18.878 49.482 19.0833 49.4542C19.1137 49.4498 19.1448 49.4454 19.176 49.441C19.2301 49.433 19.2857 49.4242 19.3427 49.414C19.3516 49.4125 19.3605 49.411 19.3702 49.4088C19.3887 49.4059 19.408 49.4023 19.4272 49.3993C19.4843 49.3891 19.5421 49.3781 19.6014 49.3664C19.7008 49.3474 19.8031 49.3255 19.9083 49.3028C19.9943 49.2838 20.0825 49.264 20.1722 49.2428C20.2204 49.2311 20.2693 49.2194 20.319 49.2077C20.3761 49.1938 20.4339 49.1799 20.4917 49.1646C20.5377 49.1536 20.5836 49.1419 20.6296 49.1295C20.654 49.1236 20.6785 49.1178 20.703 49.1112C20.7497 49.0995 20.7964 49.087 20.8431 49.0746L20.8446 49.0739C20.8964 49.0607 20.9476 49.0468 21.0002 49.0322C21.0165 49.0278 21.0336 49.0234 21.0506 49.0183C21.0899 49.0081 21.1292 48.9971 21.1685 48.9861C21.1952 48.9788 21.2226 48.9715 21.2493 48.9634C21.2975 48.9503 21.3457 48.9371 21.3938 48.9232L21.3953 48.9225C21.4576 48.9057 21.5198 48.8874 21.5821 48.8698C21.6147 48.8603 21.6466 48.8508 21.6785 48.8413C21.7734 48.8142 21.8682 48.7864 21.9639 48.7579C22.0113 48.7433 22.0588 48.7294 22.1062 48.7155C22.1403 48.7045 22.1744 48.6943 22.2085 48.6841C22.2567 48.6694 22.3049 48.6548 22.3523 48.6402C22.439 48.6138 22.5265 48.5868 22.6132 48.5597C22.6562 48.5465 22.6992 48.5327 22.7422 48.5195C22.7971 48.5027 22.8512 48.4851 22.9053 48.4683C22.9913 48.4412 23.078 48.4134 23.1633 48.3856C23.2507 48.3579 23.3374 48.3301 23.4242 48.3015C25.6584 47.5767 27.7324 46.7898 27.7324 46.7898C27.7754 46.7795 27.8125 46.759 27.8444 46.7334C27.9444 46.6523 27.9837 46.5111 27.9333 46.3714C27.8496 46.1366 27.7347 45.9187 27.5953 45.722C27.5553 45.6656 27.5138 45.6115 27.47 45.5588C27.4485 45.5325 27.4263 45.5062 27.4033 45.4813C27.3692 45.4426 27.3344 45.4053 27.2981 45.3694C27.2862 45.3577 27.2743 45.346 27.2625 45.3343C27.2499 45.3219 27.2373 45.3102 27.2239 45.2985C27.1876 45.2641 27.1498 45.2305 27.1113 45.1983C27.0594 45.1551 27.0067 45.1142 26.9519 45.0747C26.516 44.7624 25.9971 44.5839 25.4738 44.5839C25.2803 44.5839 25.0861 44.6081 24.8956 44.6592C24.8956 44.6592 22.2856 45.3592 22.0877 45.4118C21.8067 45.4864 21.3501 45.5786 20.9965 45.5786C20.9231 45.5786 20.8534 45.5742 20.7919 45.5654C20.1967 45.4791 19.6444 44.9664 19.508 44.3718C19.4132 43.9644 19.5043 43.4883 19.683 43.1394C19.8601 42.7906 20.1226 42.4973 20.3909 42.2179C21.2537 41.3183 22.8734 40.1598 22.8734 40.1598L30.0793 35.4665L32.0118 36.8846L31.3098 37.2949L24.141 41.9634C23.8964 42.1404 23.3923 42.5178 22.9031 42.92C23.6006 42.7328 24.2989 42.5456 24.3137 42.5419C24.6903 42.441 25.0809 42.3898 25.4738 42.3898C26.4515 42.3898 27.4411 42.713 28.2595 43.3003C29.0808 43.8891 29.6931 44.6987 30.0296 45.6386C30.3884 46.6376 30.0801 47.7574 29.261 48.4251L29.2454 48.4383L29.2291 48.4507C28.9963 48.6336 28.7391 48.7718 28.4626 48.8632C28.1112 48.9956 26.479 49.6056 24.6147 50.2236C20.6466 51.5394 19.2493 51.6915 18.5429 51.6915C18.4228 51.6915 18.305 51.6864 18.1938 51.6769C17.3991 51.6081 16.6749 51.4845 16.0129 51.3536C15.8884 51.3295 15.7661 51.3046 15.646 51.2805C15.5304 51.2563 15.417 51.2329 15.3058 51.2102C15.2969 51.208 15.288 51.2066 15.2791 51.2044L14.7721 59.39H32.9792L32.163 47.5219V47.5138C32.166 45.6942 32.9844 44.758 33.7753 43.8525C33.8405 43.7779 33.9058 43.7033 33.9695 43.6295C34.8071 42.6589 35.9376 41.7659 37.1347 40.8209C38.2637 39.9294 39.5431 38.9194 40.7625 37.6943C43.0619 35.3824 47.4629 22.4662 47.7164 21.7172C47.7638 21.6068 47.7883 21.4898 47.7883 21.3684C47.7883 20.9763 47.5326 20.6319 47.1389 20.4907ZM17.3517 34.9838L15.629 33.5963L20.1248 28.1622L20.1329 28.1527L22.5769 25.1986L24.2996 26.586L21.9187 29.464L21.9112 29.4728L17.3517 34.9838ZM26.3477 32.718L26.3411 32.7238L20.3123 38.1507L18.8142 36.5299L24.5242 31.3905L24.5309 31.3839L28.2847 28.0049L29.7835 29.6257L26.3477 32.718Z" fill="#FAB33F"/>
</svg>
